<svg xmlns="http://www.w3.org/2000/svg" width="13.995" height="13.995" viewBox="0 0 13.995 13.995"><defs><style>.a{fill:#f1330d;}</style></defs><path class="a" d="M7,14a7,7,0,1,1,7-7A7.018,7.018,0,0,1,7,14ZM7,.583A6.415,6.415,0,1,0,13.412,7,6.433,6.433,0,0,0,7,.583Z"/><path class="a" d="M241.927,492.329h-7.47a.269.269,0,0,1-.278-.262v-.029a.269.269,0,0,1,.278-.262h7.44a.269.269,0,0,1,.278.262v.029A.228.228,0,0,1,241.927,492.329Z" transform="translate(-509.355 -172.518) rotate(-45)"/><path class="a" d="M490.2,213.175V220.6a.281.281,0,0,1-.275.286.3.3,0,0,1-.275-.286v-7.429a.275.275,0,1,1,.55,0Z" transform="translate(-492.795 200.06) rotate(-45)"/></svg>