<svg xmlns="http://www.w3.org/2000/svg" width="14" height="14" viewBox="0 0 14 14"><defs><style>.a,.b{fill:#e8eaed;}.a{opacity:0;}</style></defs><g transform="translate(-1764 -137)"><rect class="a" width="14" height="14" transform="translate(1764 137)"/><path class="b" d="M117.778,106.8a.47.47,0,1,1,.665.665l-6.65,6.65a.47.47,0,0,1-.665-.665l6.651-6.65Zm-.138,4.879a.47.47,0,1,1,.941,0v5.173a1.724,1.724,0,0,1-1.724,1.724h-8.465a1.724,1.724,0,0,1-1.724-1.724v-8.465a1.724,1.724,0,0,1,1.724-1.724h5.016a.47.47,0,0,1,0,.941h-5.016a.784.784,0,0,0-.784.784v8.465a.784.784,0,0,0,.784.784h8.465a.784.784,0,0,0,.784-.784Z" transform="translate(1658.374 31.376)"/></g></svg>