<svg xmlns="http://www.w3.org/2000/svg" width="18" height="18" viewBox="0 0 18 18"><defs><style>.a{opacity:0.7;}.b{fill:#ffe8e8;opacity:0;}.c{fill:#fff;}</style></defs><g class="a" transform="translate(-1742 -15)"><rect class="b" width="18" height="18" transform="translate(1742 15)"/><path class="c" d="M2594.939-35.4a.507.507,0,0,1-.506-.506.507.507,0,0,1,.506-.506h3.649v-3.649a.508.508,0,0,1,.507-.506.507.507,0,0,1,.506.506v4.155a.507.507,0,0,1-.506.506Zm-8.434,0a.507.507,0,0,1-.506-.506v-4.155a.507.507,0,0,1,.506-.506.508.508,0,0,1,.508.506v2.934l3.291-3.292a.5.5,0,0,1,.357-.149.5.5,0,0,1,.469.314.5.5,0,0,1-.111.55l-3.291,3.291h2.933a.508.508,0,0,1,.508.506.508.508,0,0,1-.508.506Zm12.082-8.939v-2.933l-3.291,3.291a.5.5,0,0,1-.358.149.51.51,0,0,1-.358-.148.507.507,0,0,1-.148-.359.506.506,0,0,1,.147-.358l3.292-3.291h-2.933a.507.507,0,0,1-.506-.506.507.507,0,0,1,.506-.506h4.155a.506.506,0,0,1,.506.506v4.155a.507.507,0,0,1-.506.506A.508.508,0,0,1,2598.587-44.339Zm-12.588,0v-4.155a.507.507,0,0,1,.506-.506h4.155a.507.507,0,0,1,.508.506.508.508,0,0,1-.508.506h-3.648v3.649a.508.508,0,0,1-.508.506A.507.507,0,0,1,2586-44.339Z" transform="translate(-841.8 66.2)"/></g></svg>