<svg xmlns="http://www.w3.org/2000/svg" width="18" height="18" viewBox="0 0 18 18"><defs><style>.a{fill:#ffe8e8;opacity:0;}.b{fill:#fff;}</style></defs><g transform="translate(-1857 -15)"><rect class="a" width="18" height="18" transform="translate(1857 15)"/><g transform="translate(905.819 -515.574)"><path class="b" d="M958.043,541.205a.508.508,0,0,1,.506.505v4.155a.506.506,0,0,1-1.012,0h0v-2.933l-3.291,3.292a.507.507,0,0,1-.716-.717l3.291-3.291h-2.933a.505.505,0,0,1-.506-.505h0a.506.506,0,0,1,.506-.505Z"/><path class="b" d="M961.81,541.711a.506.506,0,0,1,.505-.506h4.155a.506.506,0,1,1,0,1.012h-2.933l3.292,3.291a.508.508,0,0,1-.166.826.507.507,0,0,1-.551-.11l-3.291-3.291v2.933a.506.506,0,0,1-.506.506h0a.506.506,0,0,1-.505-.506Z"/><path class="b" d="M962.83,533.283v2.932l3.287-3.291a.508.508,0,0,1,.715,0,.508.508,0,0,1,0,.717l-3.291,3.291h2.932a.507.507,0,0,1,.508.506h0a.506.506,0,0,1-.508.5h-4.155a.505.505,0,0,1-.5-.5v-4.155a.506.506,0,0,1,1.012,0v0Z"/><path class="b" d="M953.889,536.928h2.932l-3.291-3.288a.5.5,0,0,1-.147-.356.506.506,0,0,1,.864-.359l3.291,3.291v-2.932a.507.507,0,0,1,.506-.508h0a.508.508,0,0,1,.5.508v4.155a.505.505,0,0,1-.5.5h-4.155a.506.506,0,0,1-.005-1.012h.005Z"/></g></g></svg>