<svg xmlns="http://www.w3.org/2000/svg" width="18" height="18" viewBox="0 0 18 18"><defs><style>.a{opacity:0.7;}.b{fill:#ffe8e8;opacity:0;}.c{fill:#fff;}</style></defs><g class="a" transform="translate(-1766 -15)"><rect class="b" width="18" height="18" transform="translate(1766 15)"/><g transform="translate(23.4)"><path class="c" d="M-1802.729,1253.209a7.608,7.608,0,0,1,7.6-7.6,7.609,7.609,0,0,1,7.6,7.6,7.609,7.609,0,0,1-7.6,7.6A7.608,7.608,0,0,1-1802.729,1253.209Zm5.019-6.111a6.606,6.606,0,0,0-2.109,1.422,6.613,6.613,0,0,0-1.421,2.108,6.592,6.592,0,0,0-.521,2.581,6.584,6.584,0,0,0,.521,2.58,6.591,6.591,0,0,0,1.421,2.108,6.59,6.59,0,0,0,2.109,1.422,6.582,6.582,0,0,0,2.58.521,6.589,6.589,0,0,0,2.581-.521,6.6,6.6,0,0,0,2.108-1.422,6.608,6.608,0,0,0,1.422-2.108,6.6,6.6,0,0,0,.52-2.58,6.608,6.608,0,0,0-.52-2.581,6.629,6.629,0,0,0-1.422-2.108,6.614,6.614,0,0,0-2.108-1.422,6.59,6.59,0,0,0-2.581-.52A6.583,6.583,0,0,0-1797.71,1247.1Z" transform="translate(3546.729 -1229.056)"/><path class="c" d="M6.963,11.185a.637.637,0,1,0,.637-.637.637.637,0,0,0-.637.637Zm.544-1.434A.447.447,0,0,1,7.06,9.3,2.888,2.888,0,0,1,8.628,6.8a1.194,1.194,0,0,0,.553-1.118,1.2,1.2,0,0,0-.949-.89,1.978,1.978,0,0,0-1.587.364,1.522,1.522,0,0,0-.47,1.006.448.448,0,0,1-.446.439H5.722a.446.446,0,0,1-.441-.448,2.413,2.413,0,0,1,.761-1.658A2.743,2.743,0,0,1,8.5,3.937c1.764.59,1.637,1.861,1.5,2.33A2.093,2.093,0,0,1,8.978,7.617l0,.005A1.9,1.9,0,0,0,7.955,9.3a.448.448,0,0,1-.448.448Z" transform="translate(1743.922 16.314)"/></g></g></svg>