<svg xmlns="http://www.w3.org/2000/svg" width="26" height="26" viewBox="0 0 26 26"><defs><style>.a,.d{fill:none;}.a{stroke:#fff;}.a,.b{opacity:0.7;}.b{fill:#fff;}.c{stroke:none;}</style></defs><g transform="translate(-1822 -11)"><g class="a" transform="translate(1822 11)"><circle class="c" cx="13" cy="13" r="13"/><circle class="d" cx="13" cy="13" r="12.5"/></g><path class="b" d="M299.918,262.929c-.08-.026-.584-.253-.269-1.212h0a5.344,5.344,0,0,0,1.45-3.549,2.966,2.966,0,1,0-5.922,0,5.329,5.329,0,0,0,1.451,3.558c.322.845-.254,1.159-.375,1.2-1.669.6-3.626,1.7-3.626,2.79v.407c0,1.48,2.868,1.816,5.523,1.816s5.491-.336,5.491-1.816v-.407c0-1.119-1.967-2.21-3.718-2.79Zm0,0" transform="translate(1536.871 -237.484)"/></g></svg>