<svg xmlns="http://www.w3.org/2000/svg" width="18" height="18" viewBox="0 0 18 18"><defs><style>.a{opacity:0.7;}.b{fill:#ffe8e8;opacity:0;}.c{fill:#fff;}</style></defs><g class="a" transform="translate(-1724 -15)"><rect class="b" width="18" height="18" transform="translate(1724 15)"/><path class="c" d="M109.9,99.929a.9.9,0,0,0-.315.057l-3.5,1.27a.927.927,0,0,1-.656-.011l-3.947-1.58a.908.908,0,0,0-.341-.065.922.922,0,0,0-.315.055l-4.124,1.5a.919.919,0,0,0-.605.865v10.922a.92.92,0,0,0,.918.92.9.9,0,0,0,.315-.057l3.5-1.27a.927.927,0,0,1,.656.011l3.947,1.58a.927.927,0,0,0,.656.011l4.124-1.5a.919.919,0,0,0,.605-.865V100.849A.921.921,0,0,0,109.9,99.929ZM97.018,112.944V102.02l3.68-1.338v10.934a1.7,1.7,0,0,0-.184.057Zm4.6-1.32V100.711l3.473,1.389q.1.04.207.069v10.913l-3.473-1.389A1.422,1.422,0,0,0,101.618,111.624Zm8.28.149-3.68,1.338V102.176a1.7,1.7,0,0,0,.184-.057l3.5-1.27Z" transform="translate(1629.541 -82.896)"/></g></svg>