<svg xmlns="http://www.w3.org/2000/svg" width="8" height="8" viewBox="0 0 8 8"><defs><style>.a{opacity:0.7;}.b{fill:#fff;}</style></defs><g class="a" transform="translate(-1595.212 -20)"><g transform="translate(1595.212 23.723)"><path class="b" d="M241.927,492.329h-7.47a.269.269,0,0,1-.278-.262v-.029a.269.269,0,0,1,.278-.262h7.44a.269.269,0,0,1,.278.262v.029A.228.228,0,0,1,241.927,492.329Z" transform="translate(-234.179 -491.775)"/></g><g transform="translate(1599.489 20) rotate(90)"><path class="b" d="M7.748.554H.278A.269.269,0,0,1,0,.292V.262A.269.269,0,0,1,.278,0h7.44A.269.269,0,0,1,8,.262V.292A.228.228,0,0,1,7.748.554Z" transform="translate(0 0)"/></g></g></svg>