<svg xmlns="http://www.w3.org/2000/svg" width="14" height="14" viewBox="0 0 14 14"><defs><style>.a,.b{fill:#e8eaed;}.a{opacity:0;}</style></defs><g transform="translate(-1764 -171)"><rect class="a" width="14" height="14" transform="translate(1764 171)"/><g transform="translate(1700.721 62.48)"><path class="b" d="M12.011,11.442H.894a.444.444,0,0,1-.444-.419L0,3.412A.441.441,0,0,1,.123,3.08a.443.443,0,0,1,.323-.14h.873V.561A.562.562,0,0,1,1.88,0H6.3a.564.564,0,0,1,.519.347l.007.017.287.919h3.865a.561.561,0,0,1,.561.561v1.1h.9a.453.453,0,0,1,.325.14.458.458,0,0,1,.124.33l-.432,7.611A.445.445,0,0,1,12.011,11.442ZM.878,3.792h0l.4,6.795H11.625l.386-6.795ZM2.172.851V2.94h8.51V2.133H6.9a.559.559,0,0,1-.519-.347l-.3-.936Z" transform="translate(63.834 109.8)"/><path class="b" d="M5.553.955H.477A.477.477,0,1,1,.477,0H5.553a.477.477,0,1,1,0,.955Z" transform="translate(67.222 114.945)"/></g></g></svg>