<svg xmlns="http://www.w3.org/2000/svg" width="14" height="14" viewBox="0 0 14 14"><defs><style>.a,.b{fill:#409eff;}.a{opacity:0;}</style></defs><g transform="translate(-1764 -205)"><rect class="a" width="14" height="14" transform="translate(1764 205)"/><path class="b" d="M-7253.6-35.579a6.185,6.185,0,0,1-6.022-4.732,6.182,6.182,0,0,1,3.172-6.97.42.42,0,0,1,.191-.047.414.414,0,0,1,.37.224.407.407,0,0,1,.027.319.409.409,0,0,1-.2.242,5.355,5.355,0,0,0-2.748,6.035,5.351,5.351,0,0,0,5.213,4.1,5.351,5.351,0,0,0,5.213-4.1,5.349,5.349,0,0,0-2.746-6.033.414.414,0,0,1-.206-.244.42.42,0,0,1,.027-.319.413.413,0,0,1,.37-.224.412.412,0,0,1,.191.047,6.182,6.182,0,0,1,3.172,6.97A6.182,6.182,0,0,1-7253.6-35.579Zm0-8.258a.417.417,0,0,1-.416-.417v-4.129a.417.417,0,0,1,.416-.417.418.418,0,0,1,.417.417v4.129A.418.418,0,0,1-7253.6-43.837Z" transform="translate(9024.601 254.19)"/></g></svg>