<svg xmlns="http://www.w3.org/2000/svg" width="18" height="18" viewBox="0 0 18 18"><defs><style>.a{opacity:0.7;}.b{fill:#ffe8e8;opacity:0;}.c{fill:#fff;}</style></defs><g class="a" transform="translate(-1523 -22)"><rect class="b" width="18" height="18" transform="translate(1523 22)"/><path class="c" d="M-8482.454,125.1a.537.537,0,0,1-.313-.1l-.008-.006-3.367-3.286-.032-.032-.072.062a6.389,6.389,0,0,1-4.19,1.578,6.544,6.544,0,0,1-6.464-6.606,6.544,6.544,0,0,1,6.464-6.606,6.546,6.546,0,0,1,6.468,6.606,6.7,6.7,0,0,1-1.384,4.079l-.058.072,3.391,3.344a.568.568,0,0,1,.121.339A.559.559,0,0,1-8482.454,125.1Zm-7.983-13.874a5.428,5.428,0,0,0-5.363,5.478,5.43,5.43,0,0,0,5.363,5.483,5.431,5.431,0,0,0,5.365-5.483A5.429,5.429,0,0,0-8490.437,111.227Z" transform="translate(10021.398 -86.6)"/></g></svg>