<svg xmlns="http://www.w3.org/2000/svg" width="18" height="18" viewBox="0 0 18 18"><defs><style>.a{opacity:0.7;}.b{fill:#ffe8e8;opacity:0;}.c{fill:#fff;}</style></defs><g class="a" transform="translate(-1591 -20)"><rect class="b" width="18" height="18" transform="translate(1591 20)"/><g transform="translate(1491.029 -102.58)"><path class="c" d="M116.314,130.03c-.089-.5-.378-.821-.748-.821H115.5a1.87,1.87,0,0,1-1.813-1.919,2.322,2.322,0,0,1,.157-.731,1.074,1.074,0,0,0-.33-1.254l-1.876-1.106-.028-.014a1.063,1.063,0,0,0-1.169.247,2.636,2.636,0,0,1-1.434.851,2.635,2.635,0,0,1-1.443-.868,1.058,1.058,0,0,0-1.167-.256l-1.943,1.127-.029.02a1.072,1.072,0,0,0-.332,1.251,2.287,2.287,0,0,1,.159.733,1.87,1.87,0,0,1-1.813,1.919h-.076c-.358,0-.647.322-.736.821a7.775,7.775,0,0,0,0,3.109c.089.5.378.821.748.821h.064a1.87,1.87,0,0,1,1.813,1.919,2.3,2.3,0,0,1-.158.731,1.073,1.073,0,0,0,.329,1.253l1.841,1.093.028.013a1.041,1.041,0,0,0,1.174-.26,2.645,2.645,0,0,1,1.465-.9c.555,0,1.269.683,1.474.924a1.042,1.042,0,0,0,.78.352.942.942,0,0,0,.392-.084l1.909-1.113.028-.019a1.072,1.072,0,0,0,.331-1.251,2.29,2.29,0,0,1-.159-.733,1.87,1.87,0,0,1,1.813-1.919h.075c.359,0,.648-.323.737-.821a7.777,7.777,0,0,0,0-3.109m-.931,1.555a8.851,8.851,0,0,1-.12,1.233,3.006,3.006,0,0,0-2.663,3.061,3.377,3.377,0,0,0,.208,1.086l-1.628.952a5.41,5.41,0,0,0-.638-.595,2.269,2.269,0,0,0-3.208-.011,5.02,5.02,0,0,0-.635.583l-1.566-.928a3.347,3.347,0,0,0,.208-1.087,3.006,3.006,0,0,0-2.662-3.061,6.384,6.384,0,0,1,0-2.468,3.006,3.006,0,0,0,2.662-3.061,3.38,3.38,0,0,0-.208-1.085l1.668-.97a5.254,5.254,0,0,0,.636.569,2.273,2.273,0,0,0,3.131.012,5.634,5.634,0,0,0,.635-.556l1.606.944a3.343,3.343,0,0,0-.208,1.086,3.006,3.006,0,0,0,2.663,3.061,8.907,8.907,0,0,1,.12,1.234" transform="translate(0)"/><path class="c" d="M367.444,365.633a3.284,3.284,0,1,0,3.285,3.285,3.289,3.289,0,0,0-3.285-3.285m1.945,3.285a1.945,1.945,0,1,1-1.945-1.945,1.947,1.947,0,0,1,1.945,1.945" transform="translate(-258.502 -237.344)"/></g></g></svg>