<svg xmlns="http://www.w3.org/2000/svg" width="18" height="18" viewBox="0 0 18 18"><defs><style>.a{fill:#ffe8e8;opacity:0;}.b{fill:#f1330d;}</style></defs><g transform="translate(-1811 -15)"><rect class="a" width="18" height="18" transform="translate(1811 15)"/><path class="b" d="M71.6,64a7.6,7.6,0,1,0,7.6,7.6A7.6,7.6,0,0,0,71.6,64Zm1.425,5.82-1.476,5.113a2.834,2.834,0,0,0-.122.575.215.215,0,0,0,.064.148.185.185,0,0,0,.137.068.368.368,0,0,0,.244-.109,4.43,4.43,0,0,0,.777-.964l.244.144q-1.087,1.893-2.309,1.893a1.039,1.039,0,0,1-.745-.263.876.876,0,0,1-.277-.665,2.481,2.481,0,0,1,.122-.677l1-3.439a2.937,2.937,0,0,0,.144-.748.366.366,0,0,0-.137-.28.541.541,0,0,0-.373-.122c-.071,0-.158,0-.26.007l.093-.288,2.438-.4h.434Zm.3-1.5a1.065,1.065,0,1,1,.309-.748A1.018,1.018,0,0,1,73.327,68.316Z" transform="translate(1748.4 -47.6)"/></g></svg>