<svg xmlns="http://www.w3.org/2000/svg" width="18" height="18" viewBox="0 0 18 18"><defs><style>.a{opacity:0.7;}.b{fill:#ffe8e8;opacity:0;}.c{fill:#fff;}</style></defs><g class="a" transform="translate(-1696 -15)"><rect class="b" width="18" height="18" transform="translate(1696 15)"/><g transform="translate(1633.515 -51.029)"><path class="c" d="M961.348,6.391h-1.417a.682.682,0,0,1-.681-.681V4.59h-2.528V5.71a.682.682,0,0,1-.681.681h-1.418a.682.682,0,0,1-.681-.681V4.59h-1.057a.349.349,0,0,1,0-.7h1.057V2.76a.682.682,0,0,1,.681-.681h1.418a.682.682,0,0,1,.681.681V3.892h2.528V2.76a.682.682,0,0,1,.68-.681h1.417a.682.682,0,0,1,.681.681V3.892h1.087a.349.349,0,0,1,0,.7h-1.087V5.71A.682.682,0,0,1,961.348,6.391Zm-1.191-3.4v2.5h.964v-2.5Zm-5.307,0v2.5h.964v-2.5Z" transform="translate(-886.522 71.907)"/><path class="c" d="M965.19,16.868H954.8a2.269,2.269,0,0,1-2.266-2.266v-8A2.266,2.266,0,0,1,954.8,4.333h1.531V3.255a1.177,1.177,0,0,1,1.175-1.176h4.964a1.177,1.177,0,0,1,1.175,1.176V4.334h1.543A2.268,2.268,0,0,1,967.456,6.6v8a2.266,2.266,0,0,1-2.266,2.266ZM954.751,5.242a1.309,1.309,0,0,0-1.307,1.308v8.1a1.308,1.308,0,0,0,1.307,1.307h10.49a1.309,1.309,0,0,0,1.308-1.307v-8.1a1.309,1.309,0,0,0-1.308-1.308Zm2.908-2.254a.42.42,0,0,0-.418.418v.929h5.5V3.406a.419.419,0,0,0-.419-.418Z" transform="translate(-888.51 65.556)"/></g></g></svg>