<svg xmlns="http://www.w3.org/2000/svg" width="14" height="14" viewBox="0 0 14 14"><defs><style>.a,.b{fill:#e8eaed;}.a{opacity:0;}</style></defs><g transform="translate(-1764 -103)"><rect class="a" width="14" height="14" transform="translate(1764 103)"/><path class="b" d="M74.145,93.4q-.063-.275-.149-.543c-.02-.063-.045-.124-.067-.186q-.059-.171-.127-.339c-.03-.072-.065-.142-.1-.213-.045-.1-.091-.2-.141-.292-.038-.074-.08-.146-.122-.217-.032-.056-.061-.114-.094-.169-.021-.034-.045-.066-.066-.1s-.036-.064-.057-.094c-.005-.009-.014-.012-.02-.02a6.288,6.288,0,0,0-1.2-1.34,6.075,6.075,0,0,0-.56-.41c-.006,0-.009-.011-.016-.016-.049-.032-.1-.06-.149-.09s-.113-.07-.17-.1c-.09-.051-.183-.1-.275-.145-.048-.024-.1-.05-.144-.073q-.206-.1-.419-.176c-.009,0-.018-.009-.028-.011-.042-.016-.085-.026-.127-.041s-.11-.039-.166-.057a3.635,3.635,0,0,0,1.711-3.122,3.687,3.687,0,0,0-1.015-2.562,3.368,3.368,0,0,0-2.45-1.061h0a3.367,3.367,0,0,0-2.45,1.061,3.742,3.742,0,0,0,0,5.124,3.493,3.493,0,0,0,.7.56c-.056.017-.112.038-.168.057s-.084.026-.126.041l-.027.011q-.212.079-.419.177c-.047.022-.094.048-.141.071-.094.047-.188.095-.279.147-.056.032-.111.067-.166.1s-.1.059-.152.092c-.007,0-.01.011-.016.016a5.95,5.95,0,0,0-1.756,1.75c-.006.008-.014.011-.02.02-.02.03-.037.063-.057.094s-.046.066-.066.1c-.034.055-.062.113-.094.169-.041.072-.083.144-.122.217-.05.1-.1.194-.141.292-.033.071-.067.141-.1.213-.047.111-.086.225-.127.339-.022.062-.047.123-.067.186-.057.178-.107.359-.149.543a.437.437,0,0,0,.173.454.387.387,0,0,0,.583-.147.432.432,0,0,0,.044-.108q.056-.246.133-.484c.008-.026.019-.049.027-.074.046-.135.094-.269.15-.4.007-.016.015-.031.022-.048.062-.143.129-.284.2-.42h0q.121-.224.261-.435l0-.005a5.373,5.373,0,0,1,1.544-1.54l.006,0a5.16,5.16,0,0,1,1.258-.6c.037-.011.073-.024.11-.035.076-.022.153-.042.23-.06a4.676,4.676,0,0,1,.627-.11c.052-.006.1-.013.155-.017.138-.011.277-.018.417-.018s.279.008.417.018c.052,0,.1.011.155.017a4.594,4.594,0,0,1,.626.11c.078.018.155.038.232.06.036.01.071.023.106.034a5.153,5.153,0,0,1,1.261.6l.006,0a5.356,5.356,0,0,1,1.544,1.54s0,0,0,.005a5.571,5.571,0,0,1,.466.861l.019.042c.057.134.107.271.154.41.007.022.016.043.024.065.051.159.1.321.133.485a.411.411,0,0,0,.5.319.431.431,0,0,0,.305-.518Zm-3.3-7.759A2.646,2.646,0,1,1,68.2,82.88,2.709,2.709,0,0,1,70.844,85.644Z" transform="translate(1702.799 22.023)"/></g></svg>